<svg id="svg" xmlns="http://www.w3.org/2000/svg" xmlns:xlink="http://www.w3.org/1999/xlink" width="400" height="408.4054388133498" viewBox="0, 0, 400,408.4054388133498"><g id="svgg"><path id="path0" d="M9.394 11.372 L 9.394 16.811 199.629 16.811 L 389.864 16.811 389.864 11.372 L 389.864 5.933 199.629 5.933 L 9.394 5.933 9.394 11.372 M168.603 26.916 C 168.603 27.035,167.436 35.462,166.009 45.643 C 164.582 55.823,163.414 64.292,163.413 64.462 C 163.410 65.105,167.089 64.867,167.235 64.215 C 167.303 63.909,168.475 55.593,169.840 45.735 C 171.205 35.878,172.377 27.562,172.445 27.256 C 172.565 26.715,172.513 26.700,170.586 26.700 C 169.495 26.700,168.603 26.797,168.603 26.916 M231.532 27.256 C 231.429 27.730,226.544 62.747,226.385 64.153 C 226.334 64.604,226.495 64.654,228.213 64.719 L 230.098 64.791 230.356 62.989 C 230.498 61.998,230.866 59.295,231.173 56.984 C 231.480 54.672,231.800 52.699,231.884 52.598 C 231.967 52.497,234.256 55.188,236.970 58.578 L 241.904 64.743 244.685 64.757 C 246.214 64.765,247.466 64.717,247.466 64.650 C 247.466 64.583,245.122 61.742,242.258 58.336 C 239.394 54.930,237.085 51.991,237.128 51.804 C 237.171 51.616,239.988 49.161,243.387 46.348 C 246.786 43.534,249.614 41.188,249.670 41.135 C 249.727 41.082,248.541 41.038,247.034 41.038 L 244.295 41.038 238.240 46.212 C 234.909 49.057,232.140 51.340,232.085 51.285 C 232.030 51.231,232.738 45.871,233.658 39.375 C 234.579 32.880,235.336 27.370,235.342 27.132 C 235.360 26.379,231.697 26.498,231.532 27.256 M285.290 26.916 C 285.290 27.035,284.123 35.462,282.696 45.643 C 281.269 55.823,280.101 64.292,280.100 64.462 C 280.097 65.105,283.776 64.867,283.922 64.215 C 283.990 63.909,285.163 55.593,286.527 45.735 C 287.892 35.878,289.064 27.562,289.132 27.256 C 289.252 26.715,289.201 26.700,287.273 26.700 C 286.183 26.700,285.290 26.797,285.290 26.916 M369.345 26.916 C 369.345 27.035,368.177 35.462,366.751 45.643 C 365.324 55.823,364.156 64.292,364.155 64.462 C 364.152 65.105,367.831 64.867,367.976 64.215 C 368.045 63.909,369.217 55.593,370.582 45.735 C 371.947 35.878,373.119 27.562,373.187 27.256 C 373.306 26.715,373.255 26.700,371.327 26.700 C 370.237 26.700,369.345 26.797,369.345 26.916 M21.014 29.233 C 21.014 29.643,16.347 63.219,16.169 64.091 L 16.030 64.771 18.151 64.771 C 19.317 64.771,20.272 64.703,20.272 64.619 C 20.272 64.210,24.257 35.887,24.389 35.352 C 24.585 34.564,24.782 35.194,29.553 51.852 L 33.251 64.767 34.487 64.762 L 35.723 64.758 44.126 49.910 C 52.700 34.758,53.041 34.196,52.795 35.637 C 52.717 36.092,51.817 42.528,50.795 49.938 C 49.773 57.349,48.875 63.718,48.800 64.091 L 48.663 64.771 50.784 64.771 C 51.950 64.771,52.905 64.706,52.905 64.625 C 52.905 64.446,57.540 31.149,57.746 29.852 L 57.893 28.925 54.842 28.935 L 51.792 28.945 43.774 42.903 C 39.365 50.579,35.684 56.860,35.594 56.860 C 35.505 56.860,33.606 50.576,31.375 42.896 L 27.318 28.931 24.166 28.928 C 21.810 28.925,21.014 29.003,21.014 29.233 M326.216 34.672 C 326.119 34.980,325.335 40.500,325.338 40.853 C 325.339 40.955,324.181 41.038,322.764 41.038 L 320.188 41.038 320.061 41.718 C 319.991 42.092,319.866 42.815,319.783 43.325 L 319.631 44.252 322.100 44.252 C 323.458 44.252,324.619 44.336,324.680 44.438 C 324.741 44.540,324.363 47.627,323.840 51.298 C 322.088 63.590,322.602 65.142,328.424 65.142 C 331.894 65.142,332.905 64.755,333.097 63.353 C 333.362 61.417,333.308 60.988,332.818 61.177 C 330.736 61.982,328.305 61.765,327.379 60.692 C 326.605 59.794,326.661 58.350,327.768 50.680 L 328.677 44.376 332.168 44.307 L 335.658 44.239 335.814 43.099 C 336.120 40.863,336.402 41.038,332.505 41.038 C 329.039 41.038,329.039 41.038,329.160 40.482 C 329.273 39.962,330.037 34.734,330.037 34.480 C 330.037 34.191,326.308 34.379,326.216 34.672 M96.674 40.939 C 92.809 41.978,90.584 44.076,89.982 47.250 C 89.275 50.975,91.027 52.740,96.858 54.178 C 101.354 55.287,102.568 56.625,101.310 59.084 C 99.690 62.251,94.184 62.608,91.385 59.729 L 90.300 58.612 88.660 59.744 C 86.675 61.115,86.682 61.011,88.467 62.796 C 92.557 66.886,101.941 65.720,104.855 60.759 C 105.471 59.711,106.134 56.746,105.921 55.995 C 105.883 55.859,105.784 55.444,105.703 55.073 C 105.285 53.162,103.452 52.019,98.839 50.791 C 94.193 49.554,93.015 48.489,94.090 46.500 C 95.755 43.417,102.238 43.401,103.214 46.477 C 103.376 46.987,106.799 45.194,106.799 44.599 C 106.799 41.917,100.930 39.795,96.674 40.939 M121.883 40.815 C 110.766 42.992,106.633 58.722,115.792 63.993 C 119.538 66.149,126.258 65.338,129.767 62.307 L 130.610 61.579 129.438 60.207 L 128.265 58.835 127.255 59.700 C 120.764 65.256,112.358 58.580,115.587 50.433 C 117.952 44.463,125.219 42.018,128.909 45.951 C 129.841 46.944,129.807 46.950,131.686 45.454 L 133.282 44.185 132.503 43.380 C 130.316 41.124,125.833 40.041,121.883 40.815 M186.382 40.920 C 173.185 44.124,171.092 62.631,183.657 65.013 C 193.091 66.803,201.904 58.374,200.438 48.964 C 199.493 42.898,193.161 39.274,186.382 40.920 M212.620 40.939 C 208.754 41.978,206.529 44.076,205.927 47.250 C 205.221 50.975,206.972 52.740,212.804 54.178 C 217.300 55.287,218.514 56.625,217.256 59.084 C 215.636 62.251,210.129 62.608,207.331 59.729 L 206.246 58.612 204.606 59.744 C 202.621 61.115,202.628 61.011,204.412 62.796 C 208.502 66.886,217.886 65.720,220.801 60.759 C 221.417 59.711,222.080 56.746,221.867 55.995 C 221.828 55.859,221.730 55.444,221.649 55.073 C 221.230 53.162,219.398 52.019,214.785 50.791 C 210.139 49.554,208.961 48.489,210.036 46.500 C 211.700 43.417,218.183 43.401,219.159 46.477 C 219.321 46.987,222.744 45.194,222.744 44.599 C 222.744 41.917,216.875 39.795,212.620 40.939 M262.917 40.780 C 249.950 43.599,247.296 62.708,259.552 65.015 C 263.837 65.822,268.515 64.554,271.576 61.756 L 272.955 60.495 272.139 59.646 C 270.774 58.227,270.568 58.194,269.349 59.192 C 263.641 63.869,256.309 61.734,255.824 55.253 L 255.749 54.265 265.308 54.200 L 274.866 54.135 275.042 52.253 C 275.796 44.204,270.447 39.143,262.917 40.780 M303.214 40.780 C 290.246 43.599,287.593 62.708,299.848 65.015 C 304.134 65.822,308.811 64.554,311.873 61.756 L 313.252 60.495 312.436 59.646 C 311.071 58.227,310.864 58.194,309.646 59.192 C 303.938 63.869,296.605 61.734,296.120 55.253 L 296.046 54.265 305.604 54.200 L 315.162 54.135 315.339 52.253 C 316.093 44.204,310.744 39.143,303.214 40.780 M346.866 40.911 C 345.097 41.313,342.156 42.658,341.075 43.559 L 340.371 44.146 341.288 45.250 C 342.444 46.641,342.435 46.638,343.561 45.869 C 348.263 42.657,355.019 44.047,355.003 48.224 C 354.995 50.193,355.176 50.107,350.721 50.258 C 342.147 50.548,337.928 53.102,337.309 58.377 C 336.528 65.038,346.160 67.764,351.909 62.510 C 353.552 61.009,353.480 60.982,353.333 63.041 L 353.209 64.771 355.059 64.771 L 356.909 64.771 357.068 62.485 C 357.155 61.227,357.561 57.862,357.970 55.006 C 359.127 46.940,358.931 44.703,356.889 42.661 C 355.047 40.819,350.650 40.051,346.866 40.911 M63.317 48.948 C 62.055 58.164,62.039 59.685,63.186 61.814 C 65.575 66.251,73.021 66.423,77.303 62.141 C 78.594 60.850,78.673 60.832,78.516 61.867 C 78.449 62.308,78.331 63.143,78.255 63.721 L 78.115 64.771 79.955 64.771 L 81.794 64.771 81.931 63.350 C 82.006 62.568,82.684 57.367,83.437 51.792 C 84.191 46.218,84.804 41.517,84.801 41.347 C 84.798 41.128,84.261 41.038,82.962 41.038 C 80.791 41.038,81.162 40.159,80.098 47.837 C 78.599 58.657,76.701 61.554,71.074 61.612 C 66.073 61.664,65.612 60.069,67.244 48.362 C 67.787 44.458,68.232 41.214,68.232 41.152 C 68.232 41.089,67.370 41.038,66.316 41.039 L 64.400 41.039 63.317 48.948 M136.988 48.948 C 135.726 58.164,135.711 59.685,136.857 61.814 C 139.247 66.251,146.692 66.423,150.974 62.141 C 152.265 60.850,152.344 60.832,152.187 61.867 C 152.120 62.308,152.003 63.143,151.926 63.721 L 151.786 64.771 153.626 64.771 L 155.465 64.771 155.602 63.350 C 155.678 62.568,156.355 57.367,157.109 51.792 C 157.862 46.218,158.476 41.517,158.473 41.347 C 158.469 41.128,157.933 41.038,156.633 41.038 C 154.463 41.038,154.833 40.159,153.769 47.837 C 152.270 58.657,150.372 61.554,144.745 61.612 C 139.744 61.664,139.283 60.069,140.915 48.362 C 141.459 44.458,141.904 41.214,141.904 41.152 C 141.904 41.089,141.041 41.038,139.988 41.039 L 138.072 41.039 136.988 48.948 M191.793 44.544 C 198.304 46.220,197.671 57.237,190.865 60.686 C 185.093 63.611,179.599 60.417,179.608 54.141 C 179.619 47.295,185.250 42.860,191.793 44.544 M267.982 44.665 C 269.833 45.422,270.954 47.166,271.029 49.402 L 271.075 50.803 263.721 50.869 C 255.338 50.944,255.836 51.099,256.996 48.771 C 258.885 44.980,264.042 43.052,267.982 44.665 M308.278 44.665 C 310.130 45.422,311.251 47.166,311.325 49.402 L 311.372 50.803 304.017 50.869 C 295.635 50.944,296.133 51.099,297.292 48.771 C 299.182 44.980,304.339 43.052,308.278 44.665 M354.265 53.991 C 354.265 55.055,353.297 57.745,352.537 58.794 C 349.184 63.424,341.053 62.942,341.501 58.141 C 341.812 54.813,344.499 53.458,350.865 53.420 L 354.265 53.399 354.265 53.991 M33.498 82.705 C 24.266 84.431,18.799 90.407,19.372 98.146 C 19.922 105.559,24.249 109.049,36.836 112.227 C 49.214 115.353,51.786 116.656,53.042 120.437 C 56.030 129.431,41.570 135.308,30.532 129.586 C 26.931 127.719,25.171 125.110,24.106 120.059 C 23.957 119.352,23.956 119.352,22.423 119.499 C 21.580 119.580,20.083 119.718,19.098 119.805 L 17.305 119.965 17.305 120.809 C 17.305 126.161,20.960 132.156,26.036 135.131 C 32.641 139.002,44.167 139.307,51.422 135.802 C 60.813 131.265,63.316 119.457,56.366 112.476 C 53.162 109.257,50.635 108.201,39.592 105.470 C 28.649 102.763,26.354 101.257,26.362 96.786 C 26.371 91.623,30.722 88.761,38.566 88.759 C 46.125 88.758,50.398 91.607,51.495 97.380 L 51.782 98.888 53.147 98.863 C 53.898 98.849,55.456 98.766,56.609 98.678 L 58.707 98.517 58.632 97.404 C 57.939 87.037,46.405 80.291,33.498 82.705 M119.992 82.693 C 115.006 83.777,113.205 86.577,112.991 93.572 L 112.855 98.022 109.951 98.092 L 107.046 98.162 107.046 100.742 L 107.046 103.322 109.951 103.391 L 112.855 103.461 112.919 120.457 L 112.982 137.454 116.193 137.454 L 119.403 137.454 119.467 120.457 L 119.530 103.461 123.300 103.393 L 127.070 103.325 127.070 100.742 L 127.070 98.159 123.300 98.090 L 119.530 98.022 119.581 94.961 C 119.673 89.512,120.533 88.628,125.743 88.628 L 128.990 88.628 129.423 86.032 C 129.661 84.604,129.869 83.330,129.885 83.200 C 129.973 82.474,122.708 82.102,119.992 82.693 M136.403 86.473 L 133.251 88.379 133.251 93.262 L 133.251 98.146 130.779 98.146 L 128.307 98.146 128.307 100.742 L 128.307 103.337 130.779 103.337 L 133.251 103.337 133.251 116.138 C 133.251 129.140,133.418 132.364,134.177 133.962 C 135.622 137.007,139.274 138.314,144.692 137.726 C 148.014 137.366,147.670 137.834,147.091 134.472 C 146.823 132.917,146.603 131.621,146.602 131.594 C 146.601 131.566,145.624 131.559,144.429 131.578 C 142.737 131.604,142.091 131.513,141.504 131.166 C 139.995 130.275,140.056 130.858,139.979 116.502 L 139.909 103.337 143.255 103.337 L 146.601 103.337 146.601 100.742 L 146.601 98.146 143.263 98.146 L 139.926 98.146 139.926 91.347 C 139.926 87.608,139.842 84.553,139.740 84.558 C 139.638 84.564,138.137 85.425,136.403 86.473 M158.220 88.010 L 158.220 91.224 167.120 91.224 L 176.020 91.224 176.020 115.080 L 176.020 138.937 179.604 138.937 L 183.189 138.937 183.189 115.080 L 183.189 91.224 192.213 91.224 L 201.236 91.224 201.236 88.010 L 201.236 84.796 179.728 84.796 L 158.220 84.796 158.220 88.010 M204.697 88.628 L 204.697 92.460 208.035 92.460 L 211.372 92.460 211.372 88.628 L 211.372 84.796 208.035 84.796 L 204.697 84.796 204.697 88.628 M82.814 97.409 C 71.758 98.445,65.282 108.356,67.002 121.608 C 68.401 132.385,74.704 138.093,85.167 138.059 C 94.980 138.027,101.458 132.717,103.105 123.356 C 105.936 107.256,97.183 96.063,82.814 97.409 M231.852 98.907 C 222.719 99.875,217.548 107.372,221.082 114.524 C 222.932 118.265,225.456 119.555,236.712 122.511 C 242.791 124.108,244.256 125.113,244.452 127.825 C 244.735 131.731,241.362 134.124,235.600 134.107 C 229.913 134.089,226.691 131.716,225.597 126.737 C 225.471 126.164,225.341 126.058,224.897 126.165 C 224.597 126.237,223.114 126.483,221.602 126.713 L 218.853 127.129 219.277 128.776 C 221.120 135.942,225.822 139.313,234.390 139.612 C 244.400 139.961,250.879 135.547,251.359 128.051 C 251.804 121.124,249.009 118.704,236.673 115.336 C 229.087 113.264,227.968 112.766,226.990 111.025 C 225.073 107.615,228.134 104.630,233.805 104.380 C 238.954 104.153,242.000 105.761,243.098 109.285 L 243.526 110.658 246.635 110.227 C 250.356 109.710,250.092 109.927,249.575 107.818 C 248.243 102.384,244.166 99.553,236.712 98.887 C 235.216 98.754,233.937 98.658,233.869 98.675 C 233.801 98.692,232.893 98.796,231.852 98.907 M269.676 98.907 C 260.543 99.875,255.372 107.372,258.907 114.524 C 260.756 118.265,263.280 119.555,274.536 122.511 C 280.616 124.108,282.081 125.113,282.277 127.825 C 282.559 131.731,279.186 134.124,273.424 134.107 C 267.737 134.089,264.516 131.716,263.421 126.737 C 263.295 126.164,263.165 126.058,262.721 126.165 C 262.421 126.237,260.938 126.483,259.427 126.713 L 256.678 127.129 257.101 128.776 C 258.944 135.942,263.647 139.313,272.214 139.612 C 282.224 139.961,288.703 135.547,289.184 128.051 C 289.628 121.124,286.834 118.704,274.498 115.336 C 266.912 113.264,265.793 112.766,264.814 111.025 C 262.898 107.615,265.959 104.630,271.630 104.380 C 276.778 104.153,279.825 105.761,280.923 109.285 L 281.351 110.658 284.459 110.227 C 288.181 109.710,287.916 109.927,287.399 107.818 C 286.068 102.384,281.990 99.553,274.536 98.887 C 273.041 98.754,271.761 98.658,271.693 98.675 C 271.625 98.692,270.718 98.796,269.676 98.907 M353.024 98.892 C 342.696 99.860,336.343 108.770,337.064 121.277 C 337.722 132.714,343.988 139.198,354.781 139.611 C 361.989 139.887,367.002 137.674,370.417 132.710 C 371.222 131.538,373.136 127.322,372.948 127.132 C 372.846 127.027,367.321 126.328,366.641 126.334 C 366.102 126.338,365.889 126.590,365.216 128.024 C 360.113 138.890,344.867 134.724,344.083 122.250 L 344.005 121.014 358.501 120.950 L 372.998 120.886 373.107 120.139 C 373.303 118.802,372.832 113.940,372.311 111.931 C 369.975 102.920,362.680 97.988,353.024 98.892 M204.697 119.283 L 204.697 138.937 208.035 138.937 L 211.372 138.937 211.372 119.283 L 211.372 99.629 208.035 99.629 L 204.697 99.629 204.697 119.283 M297.161 114.153 C 297.166 130.113,297.215 130.752,298.646 133.667 C 302.315 141.140,315.317 141.836,321.511 134.893 L 322.866 133.375 322.867 136.156 L 322.868 138.937 325.834 138.937 L 328.801 138.937 328.801 119.283 L 328.801 99.629 325.464 99.629 L 322.126 99.629 322.117 111.681 C 322.108 125.143,321.993 126.477,320.627 129.040 C 317.628 134.667,308.486 135.712,305.235 130.799 C 303.877 128.747,303.832 128.190,303.832 113.298 L 303.832 99.629 300.494 99.629 L 297.157 99.629 297.161 114.153 M89.804 103.902 C 92.952 105.458,94.989 108.084,96.076 111.990 C 96.709 114.264,96.720 121.059,96.094 123.362 C 92.487 136.631,76.371 135.728,74.020 122.126 C 71.731 108.877,80.165 99.138,89.804 103.902 M359.969 105.256 C 363.308 106.868,365.320 109.912,366.012 114.400 L 366.174 115.451 355.275 115.451 L 344.376 115.451 344.376 114.771 C 344.376 107.432,353.253 102.015,359.969 105.256 M17.800 181.088 L 17.800 208.158 34.734 208.158 L 51.669 208.158 51.669 204.947 L 51.669 201.735 38.381 201.671 L 25.093 201.607 25.030 177.812 L 24.967 154.017 21.383 154.017 L 17.800 154.017 17.800 181.088 M101.360 181.088 L 101.360 208.158 104.450 208.158 L 107.540 208.158 107.540 205.811 L 107.540 203.464 109.209 205.151 C 115.535 211.544,126.528 209.707,132.008 201.341 C 136.595 194.337,136.492 181.921,131.786 174.712 C 126.870 167.182,115.612 165.676,109.421 171.721 L 108.035 173.074 108.035 163.546 L 108.035 154.017 104.697 154.017 L 101.360 154.017 101.360 181.088 M257.293 157.178 L 254.141 159.084 254.141 163.967 L 254.141 168.850 251.669 168.850 L 249.197 168.850 249.197 171.446 L 249.197 174.042 251.669 174.042 L 254.141 174.042 254.141 186.842 C 254.141 199.845,254.308 203.068,255.067 204.667 C 256.512 207.711,260.164 209.019,265.582 208.431 C 268.904 208.070,268.560 208.538,267.981 205.177 C 267.713 203.621,267.493 202.326,267.492 202.299 C 267.491 202.271,266.514 202.264,265.319 202.282 C 263.627 202.309,262.981 202.218,262.394 201.871 C 260.885 200.980,260.946 201.562,260.869 187.206 L 260.799 174.042 264.145 174.042 L 267.491 174.042 267.491 171.446 L 267.491 168.850 264.153 168.850 L 260.816 168.850 260.816 162.052 C 260.816 158.313,260.732 155.258,260.630 155.263 C 260.528 155.268,259.027 156.130,257.293 157.178 M74.042 168.026 C 65.543 168.544,60.574 171.884,58.712 178.331 C 58.191 180.135,58.116 180.080,61.669 180.545 C 64.791 180.953,65.018 180.934,65.019 180.270 C 65.019 179.460,66.474 176.790,67.442 175.821 C 69.068 174.195,70.708 173.711,74.660 173.689 C 81.074 173.654,83.706 175.404,84.302 180.098 C 84.756 183.683,84.516 183.796,73.033 185.413 C 62.789 186.855,58.983 189.194,57.477 194.976 C 54.230 207.442,70.999 213.792,83.160 204.701 C 84.091 204.005,84.878 203.469,84.908 203.510 C 84.938 203.551,85.138 204.308,85.352 205.192 C 85.567 206.075,85.860 207.104,86.005 207.478 L 86.267 208.158 89.734 208.158 C 91.641 208.158,93.201 208.117,93.201 208.066 C 93.201 208.015,92.962 207.432,92.669 206.769 C 91.441 203.994,91.425 203.814,91.229 190.111 C 90.998 174.068,90.797 173.142,86.981 170.593 C 84.627 169.022,78.084 167.489,75.525 167.910 C 75.389 167.932,74.722 167.985,74.042 168.026 M157.227 168.113 C 146.171 169.149,139.695 179.061,141.415 192.312 C 142.814 203.089,149.117 208.798,159.580 208.763 C 169.393 208.731,175.871 203.421,177.517 194.061 C 180.349 177.961,171.596 166.767,157.227 168.113 M198.744 168.121 C 196.444 168.491,194.565 169.978,192.670 172.930 L 191.718 174.413 191.648 171.632 L 191.578 168.850 188.620 168.850 L 185.661 168.850 185.661 188.504 L 185.661 208.158 188.983 208.158 L 192.304 208.158 192.395 195.612 C 192.482 183.592,192.509 182.982,193.031 181.088 C 194.489 175.798,198.599 173.561,203.085 175.615 C 204.806 176.403,204.637 176.547,205.808 173.300 C 206.323 171.873,206.791 170.579,206.848 170.425 C 207.254 169.334,201.456 167.685,198.744 168.121 M225.587 168.026 C 217.088 168.544,212.119 171.884,210.257 178.331 C 209.736 180.135,209.662 180.080,213.215 180.545 C 216.336 180.953,216.564 180.934,216.564 180.270 C 216.564 179.460,218.019 176.790,218.988 175.821 C 220.613 174.195,222.253 173.711,226.205 173.689 C 232.619 173.654,235.251 175.404,235.847 180.098 C 236.301 183.683,236.061 183.796,224.578 185.413 C 214.334 186.855,210.528 189.194,209.022 194.976 C 205.775 207.442,222.544 213.792,234.705 204.701 C 235.636 204.005,236.423 203.469,236.453 203.510 C 236.483 203.551,236.683 204.308,236.898 205.192 C 237.112 206.075,237.405 207.104,237.550 207.478 L 237.812 208.158 241.279 208.158 C 243.186 208.158,244.747 208.117,244.747 208.066 C 244.747 208.015,244.507 207.432,244.214 206.769 C 242.986 203.994,242.971 203.814,242.774 190.111 C 242.543 174.068,242.342 173.142,238.526 170.593 C 236.173 169.022,229.630 167.489,227.070 167.910 C 226.934 167.932,226.267 167.985,225.587 168.026 M287.264 168.113 C 276.208 169.149,269.732 179.061,271.452 192.312 C 272.851 203.089,279.154 208.798,289.617 208.763 C 299.430 208.731,305.908 203.421,307.554 194.061 C 310.386 177.961,301.633 166.767,287.264 168.113 M328.781 168.121 C 326.481 168.491,324.602 169.978,322.707 172.930 L 321.755 174.413 321.685 171.632 L 321.615 168.850 318.657 168.850 L 315.698 168.850 315.698 188.504 L 315.698 208.158 319.020 208.158 L 322.341 208.158 322.432 195.612 C 322.519 183.592,322.546 182.982,323.068 181.088 C 324.526 175.798,328.636 173.561,333.122 175.615 C 334.843 176.403,334.674 176.547,335.845 173.300 C 336.360 171.873,336.828 170.579,336.886 170.425 C 337.291 169.334,331.493 167.685,328.781 168.121 M337.268 169.153 C 337.334 169.326,340.683 178.172,344.711 188.810 L 352.033 208.152 351.198 210.459 C 348.959 216.644,346.918 218.151,341.919 217.308 C 339.716 216.936,339.861 216.681,340.292 220.149 C 340.693 223.386,340.665 223.343,342.645 223.757 C 348.528 224.988,352.641 222.203,355.824 214.833 C 356.767 212.650,372.618 170.583,372.988 169.283 C 373.101 168.886,372.834 168.850,369.769 168.850 L 366.427 168.850 366.188 169.530 C 366.056 169.904,364.039 175.419,361.705 181.784 C 359.370 188.150,356.998 194.906,356.434 196.798 C 355.870 198.689,355.380 200.209,355.346 200.175 C 355.313 200.142,354.783 198.503,354.170 196.534 C 353.557 194.565,351.116 187.559,348.747 180.964 L 344.438 168.974 340.793 168.905 C 337.916 168.851,337.174 168.903,337.268 169.153 M122.105 174.393 C 130.548 178.733,130.933 196.854,122.693 202.056 C 116.636 205.879,109.308 201.747,107.920 193.725 C 105.911 182.116,110.552 173.332,118.541 173.623 C 120.391 173.691,120.992 173.820,122.105 174.393 M164.217 174.606 C 167.365 176.162,169.402 178.788,170.489 182.695 C 171.122 184.969,171.133 191.764,170.507 194.067 C 166.900 207.335,150.784 206.433,148.433 192.831 C 146.144 179.581,154.578 169.843,164.217 174.606 M294.254 174.606 C 297.402 176.162,299.439 178.788,300.526 182.695 C 301.159 184.969,301.170 191.764,300.544 194.067 C 296.937 207.335,280.821 206.433,278.470 192.831 C 276.181 179.581,284.615 169.843,294.254 174.606 M84.302 191.212 C 84.302 195.459,83.531 197.868,81.504 199.951 C 75.730 205.885,64.316 204.462,64.282 197.804 C 64.262 193.687,66.455 192.138,74.143 190.836 C 78.571 190.087,81.953 189.356,83.066 188.908 C 84.279 188.420,84.302 188.461,84.302 191.212 M235.847 191.212 C 235.847 195.459,235.076 197.868,233.049 199.951 C 227.275 205.885,215.861 204.462,215.827 197.804 C 215.807 193.687,218.000 192.138,225.688 190.836 C 230.116 190.087,233.498 189.356,234.611 188.908 C 235.824 188.420,235.847 188.461,235.847 191.212 M62.423 232.054 C 46.980 233.892,36.345 238.883,28.326 248.058 C 14.308 264.097,18.101 290.245,36.209 302.394 C 41.365 305.854,45.979 307.720,64.153 313.699 C 85.718 320.793,91.254 324.274,93.847 332.366 C 98.858 348.006,83.986 361.322,64.400 358.733 C 48.851 356.678,34.666 342.694,25.321 320.210 L 24.371 317.923 20.508 317.923 C 18.384 317.923,16.600 317.970,16.543 318.026 C 16.486 318.083,16.682 327.567,16.978 339.102 C 17.274 350.637,17.525 361.159,17.535 362.485 L 17.553 364.895 21.450 364.895 L 25.347 364.895 28.531 361.704 L 31.716 358.512 34.585 359.946 C 61.604 373.446,96.998 370.389,114.117 353.077 C 128.964 338.061,128.611 312.886,113.366 299.591 C 106.838 293.898,102.637 291.964,81.211 284.791 C 64.207 279.098,60.482 277.489,55.943 273.877 C 44.157 264.498,49.233 245.600,64.524 241.930 C 78.982 238.460,91.427 244.628,100.552 259.784 C 103.035 263.907,109.765 278.205,109.765 279.356 C 109.765 279.647,117.599 279.709,117.733 279.419 C 117.780 279.317,117.685 271.724,117.523 262.546 C 117.361 253.368,117.217 243.495,117.205 240.606 L 117.182 235.352 113.045 235.352 L 108.908 235.352 106.261 237.991 L 103.614 240.629 101.436 239.620 C 88.387 233.571,73.664 230.716,62.423 232.054 M133.498 253.894 L 133.498 272.435 137.021 272.433 L 140.544 272.430 141.395 270.146 C 145.214 259.896,153.586 247.793,158.523 245.386 C 160.964 244.196,167.424 243.511,176.204 243.511 L 179.982 243.511 179.917 296.106 L 179.852 348.702 179.297 350.335 C 177.841 354.616,174.976 356.052,166.008 356.994 C 163.288 357.280,160.813 357.564,160.507 357.625 C 159.961 357.733,159.951 357.800,159.951 361.315 L 159.951 364.895 196.168 364.895 L 232.386 364.895 232.386 361.315 C 232.386 357.801,232.375 357.733,231.829 357.621 C 231.523 357.558,229.529 357.216,227.398 356.861 C 216.520 355.051,213.464 353.053,212.618 347.199 C 212.460 346.103,212.369 327.164,212.366 294.499 L 212.361 243.511 216.378 243.513 C 225.107 243.518,231.371 244.193,233.826 245.391 C 238.770 247.805,246.557 258.958,250.808 269.716 L 251.834 272.311 255.459 272.380 L 259.085 272.448 259.085 253.900 L 259.085 235.352 196.292 235.352 L 133.498 235.352 133.498 253.894 M266.255 238.915 L 266.255 242.478 267.305 242.648 C 279.740 244.655,284.159 247.032,285.039 252.188 C 285.229 253.304,285.288 267.864,285.238 301.607 L 285.167 349.444 284.596 350.858 C 283.045 354.697,280.185 356.029,271.199 357.098 C 269.363 357.316,267.500 357.552,267.058 357.621 L 266.255 357.748 266.255 361.321 L 266.255 364.895 325.938 364.895 L 385.622 364.895 385.768 363.350 C 385.969 361.228,388.138 325.441,388.135 324.289 L 388.133 323.362 384.782 323.362 L 381.431 323.362 380.928 324.536 C 375.239 337.820,366.297 351.182,361.454 353.636 C 357.764 355.506,351.001 356.346,339.555 356.355 C 322.820 356.368,319.659 354.856,318.139 346.106 C 317.767 343.967,317.537 256.117,317.895 252.965 C 318.551 247.180,320.486 245.224,326.848 243.910 C 328.483 243.572,336.263 242.522,337.130 242.522 C 337.382 242.522,337.454 241.724,337.454 238.937 L 337.454 235.352 301.854 235.352 L 266.255 235.352 266.255 238.915 M9.394 397.775 L 9.394 403.214 199.629 403.214 L 389.864 403.214 389.864 397.775 L 389.864 392.336 199.629 392.336 L 9.394 392.336 9.394 397.775 " stroke="none" fill="#000000" fill-rule="evenodd"></path></g></svg>